<svg xmlns="http://www.w3.org/2000/svg" viewBox="0 0 24 24" fill="none" stroke="currentColor" stroke-width="1.5" stroke-linecap="round" stroke-linejoin="round">
  <path d="M 4 18 L 4 6 C 4 4.8954305003384135, 4.8954305003384135 4, 6 4 L 18 4 C 19.104569499661586 4, 20 4.8954305003384135, 20 6 L 20 18" />
  <path d="M 2 18 L 22 18 L 22 20 C 22 21.104569499661586, 21.104569499661586 22, 20 22 L 4 22 C 2.8954305003384135 22, 2 21.104569499661586, 2 20 L 2 18 Z" />
  <path d="M 14 10 C 14 11.104569499661586, 13.104569499661586 12, 12 12 C 10.895430500338414 12, 10 11.104569499661586, 10 10 C 10 8.895430500338414, 10.895430500338414 8, 12 8 C 13.104569499661586 8, 14 8.895430500338414, 14 10 Z" />
</svg>
