<svg xmlns="http://www.w3.org/2000/svg" viewBox="0 0 24 24" fill="none" stroke="currentColor" stroke-width="1.5" stroke-linecap="round" stroke-linejoin="round">
  <path d="M 8 7 C 8 8.65685424949238, 6.65685424949238 10, 5 10 C 3.34314575050762 10, 2 8.65685424949238, 2 7 C 1.9999999999999998 5.34314575050762, 3.343145750507619 4, 4.999999999999999 4 C 6.65685424949238 3.9999999999999996, 8 5.3431457505076185, 8 6.999999999999999 Z" />
  <path d="M 8 17 C 8 18.65685424949238, 6.65685424949238 20, 5 20 C 3.34314575050762 20, 2 18.65685424949238, 2 17 C 1.9999999999999998 15.34314575050762, 3.343145750507619 14, 4.999999999999999 14 C 6.65685424949238 14, 8 15.34314575050762, 8 17 Z" />
  <path d="M 8 7 L 20 17" />
  <path d="M 8 17 L 20 7" />
</svg>
