<svg xmlns="http://www.w3.org/2000/svg" viewBox="0 0 24 24" fill="none" stroke="currentColor" stroke-width="1.5" stroke-linecap="round" stroke-linejoin="round">
  <path d="M 17.9271240234375 17.917734375 C 20.3172412109375 16.15869140625, 22.39297957282153 13.135607353311329, 23 12 C 23 12, 19 4, 11.999999999999995 4 C 11.293064069497346 3.9983387386641533, 9.2636913904876 3.854744402039261, 6.074130843612593 6.036177507508011 L 5.9303713240071145 6.15016696479299 C 3.8395067760839994 7.746774371248065, 2.24388989605133 9.681895667876372, 1 12 C 1 12, 5 20, 12 19.999999999999996 C 14.149107466642219 19.964863157165052, 16.230589955982072 19.243002226518573, 17.94 17.94 L 17.9271240234375 17.917734375 Z" />
  <path d="M 1 1 L 23 23" />
  <path d="M 15.16227766016838 12 A 3.16227766016838 3.16227766016838 0 1 0 8.83772233983162 12 A 3.16227766016838 3.16227766016838 0 1 0 15.16227766016838 12 Z" />
</svg>
