<svg xmlns="http://www.w3.org/2000/svg" viewBox="0 0 24 24" fill="none" stroke="currentColor" stroke-width="1.5" stroke-linecap="round" stroke-linejoin="round">
  <path d="M 15 3 L 21 3 L 21 9" />
  <path d="M 9 21 L 3 21 L 3 15" />
  <path d="M 21 15 L 21 21 L 15 21" />
  <path d="M 3 9 L 3 3 L 9 3" />
  <path d="M 12.5715 6.1971 L 13.1376 6.2811 L 13.6926 6.4201 L 14.2314 6.6129 L 14.7487 6.8576 L 15.2395 7.1517 L 15.6991 7.4926 L 16.1231 7.8769 L 16.5074 8.3009 L 16.8483 8.7605 L 17.1424 9.2513 L 17.3871 9.7686 L 17.5799 10.3074 L 17.7189 10.8624 L 17.8029 11.4285 L 17.831 12 L 17.8029 12.5715 L 17.7189 13.1376 L 17.5799 13.6926 L 17.3871 14.2314 L 17.1424 14.7487 L 16.8483 15.2395 L 16.6602 15.4932 L 18.8959 17.8691 L 17.4394 19.2397 L 15.2073 16.8676 L 14.7487 17.1424 L 14.2314 17.3871 L 13.6926 17.5799 L 13.1376 17.7189 L 12.5715 17.8029 L 12 17.831 L 11.4285 17.8029 L 10.8624 17.7189 L 10.3074 17.5799 L 9.7686 17.3871 L 9.2513 17.1424 L 8.7605 16.8483 L 8.3009 16.5074 L 7.8769 16.1231 L 7.4926 15.6991 L 7.1517 15.2395 L 6.8576 14.7487 L 6.6129 14.2314 L 6.4201 13.6926 L 6.2811 13.1376 L 6.1971 12.5715 L 6.169 12 L 6.1971 11.4285 L 6.2811 10.8624 L 6.4201 10.3074 L 6.6129 9.7686 L 6.8576 9.2513 L 7.1517 8.7605 L 7.4926 8.3009 L 7.8769 7.8769 L 8.3009 7.4926 L 8.7605 7.1517 L 9.2513 6.8576 L 9.7686 6.6129 L 10.3074 6.4201 L 10.8624 6.2811 L 11.4285 6.1971 L 12 6.169 L 12.5715 6.1971 Z" />
</svg>
