<svg xmlns="http://www.w3.org/2000/svg" viewBox="0 0 24 24" fill="none" stroke="currentColor" stroke-width="1.5" stroke-linecap="round" stroke-linejoin="round">
  <path d="M 14 2 L 6 2 C 4.8954305003384135 2, 4 2.8954305003384126, 4 3.9999999999999996 L 4 20 C 4 21.104569499661586, 4.8954305003384135 22, 6 22 L 18 22 C 19.104569499661586 22, 20 21.104569499661586, 20 20 L 20 8 L 14 2 Z" />
  <path d="M 14 2 L 14 8 L 20 8" />
  <path d="M 15.5 11.8 C 14.6 10.7, 13.4 10, 12.1 10 C 9.6 10, 7.8 12, 7.8 14.5 C 7.8 17, 9.6 19, 12.1 19 C 14.4 19, 15.7 17.4, 15.7 15.1 L 12.1 15.1" />
</svg>
