<svg xmlns="http://www.w3.org/2000/svg" viewBox="0 0 24 24" fill="none" stroke="currentColor" stroke-width="1.5" stroke-linecap="round" stroke-linejoin="round">
  <path d="M 3 6 C 3 4.8954305003384135, 3.8954305003384135 4, 5 4 L 13 4 C 14.104569499661586 4, 15 4.8954305003384135, 15 6 L 15 14 C 15 15.104569499661586, 14.104569499661586 16, 13 16 L 5 16 C 3.8954305003384135 16, 3 15.104569499661586, 3 14 L 3 6 Z" />
  <path d="M 21 15 C 21 18.31370849898476, 18.31370849898476 21, 15 21 C 11.68629150101524 21, 9 18.31370849898476, 9 15 C 9 11.68629150101524, 11.686291501015237 9, 14.999999999999998 9 C 18.31370849898476 9, 21 11.686291501015237, 21 14.999999999999998 L 21 15 Z" />
</svg>
