<svg xmlns="http://www.w3.org/2000/svg" viewBox="0 0 24 24" fill="none" stroke="currentColor" stroke-width="1.5" stroke-linecap="round" stroke-linejoin="round">
  <path d="M 4 18 C 8 18, 8 6, 12 6 C 16 6, 16 18, 20 18" />
  <path d="M 5 18 C 5 18.552284749830793, 4.552284749830793 19, 4 19 C 3.4477152501692068 19, 3 18.552284749830793, 3 18 C 3 17.447715250169207, 3.4477152501692068 17, 4 17 C 4.552284749830793 17, 5 17.447715250169207, 5 18 Z" />
  <path d="M 21 18 C 21 18.552284749830793, 20.552284749830793 19, 20 19 C 19.447715250169207 19, 19 18.552284749830793, 19 18 C 19 17.447715250169207, 19.447715250169207 17, 20 17 C 20.552284749830793 17, 21 17.447715250169207, 21 18 Z" />
</svg>
