<svg xmlns="http://www.w3.org/2000/svg" viewBox="0 0 24 24" fill="none" stroke="currentColor" stroke-width="1.5" stroke-linecap="round" stroke-linejoin="round">
  <path d="M 21 8 C 20.99926785125963 7.286201611486217, 20.618168079599407 6.6268990065141, 19.999999999999915 6.26999999999995 L 13 2.2699999999999996 C 12.381197846482994 1.912734410091835, 11.618802153517006 1.9127344100918353, 11 2.269999999999999 L 4 6.27 C 3.381831920400526 6.626899006514179, 3.000732148740333 7.286201611486314, 3.0000000000000004 7.999999999999998 L 3 16 C 3.0007321487403678 16.713798388513784, 3.3818319204005944 17.3731009934859, 4.000000000000086 17.73000000000005 L 11 21.73 C 11.618802153517006 22.087265589908164, 12.381197846482994 22.087265589908164, 13 21.73 L 20 17.73 C 20.618168079599474 17.37310099348582, 20.999267851259667 16.713798388513684, 21 16 L 21 8 Z" />
  <path d="M 3.3 7 L 12 12 L 20.7 7" />
  <path d="M 12 22 L 12 12" />
</svg>
